<?xml version="1.0" encoding="utf-8"?>
<!-- Generator: Adobe Illustrator 24.0.2, SVG Export Plug-In . SVG Version: 6.00 Build 0)  -->
<svg version="1.1" xmlns="http://www.w3.org/2000/svg" xmlns:xlink="http://www.w3.org/1999/xlink" x="0px" y="0px"
	 viewBox="0 0 1920 1080" style="enable-background:new 0 0 1920 1080;" xml:space="preserve">
<style type="text/css">
	.st0{fill:none;}
	.st1{clip-path:url(#SVGID_2_);}
	.st2{fill:url(#SVGID_3_);}
	.st3{filter:url(#Adobe_OpacityMaskFilter);}
	.st4{opacity:0.12;mask:url(#SVGID_4_);}
	.st5{fill:#333333;}
	.st6{fill:#FFFFFF;}
	.st7{opacity:0.61;}
	.st8{fill:#F7EAF3;}
	.st9{fill:#125FDA;}
	.st10{fill:#DE3CA8;}
	.st11{fill:#A7B3B3;}
	.st12{fill:#340E63;}
	.st13{fill:#42127D;}
	.st14{opacity:0.7;fill:#F7EAF3;}
	.st15{fill:#4D1593;}
	.st16{opacity:0.38;fill:#F7EAF3;}
	.st17{opacity:0.28;fill:#F7EAF3;}
	.st18{opacity:0.84;}
	.st19{fill:none;stroke:#F7EAF3;stroke-miterlimit:10;}
	.st20{fill:#DA126A;}
	.st21{fill:url(#SVGID_5_);}
	.st22{fill:url(#SVGID_6_);}
	.st23{opacity:0.5;fill:url(#SVGID_7_);}
	.st24{fill:url(#SVGID_8_);}
	.st25{fill:url(#SVGID_9_);}
	.st26{display:none;opacity:0.74;fill:url(#SVGID_10_);}
	.st27{display:none;fill:url(#SVGID_11_);}
	.st28{display:none;fill:url(#SVGID_12_);}
	.st29{display:none;fill:url(#SVGID_13_);}
	.st30{display:none;opacity:0.8;fill:url(#SVGID_14_);}
	.st31{display:none;opacity:0.73;fill:url(#SVGID_15_);}
	.st32{display:none;opacity:0.98;fill:url(#SVGID_16_);}
	.st33{fill:none;stroke:#FFFFFF;stroke-width:13;stroke-miterlimit:10;}
	.st34{fill:#FFFFFF;stroke:#FFFFFF;stroke-width:13;stroke-miterlimit:10;}
</style>
<g id="BACKGROUND_2">
</g>
<g id="OBJECTS">
</g>
<g id="DESIGNED_BY_FREEPIK">
	<g>
		<linearGradient id="SVGID_2_" gradientUnits="userSpaceOnUse" x1="345.982" y1="870.3229" x2="559.3778" y2="656.9271">
			<stop  offset="0" style="stop-color:#125FDA"/>
			<stop  offset="0.905" style="stop-color:#42127D"/>
		</linearGradient>
		<circle style="display:none;opacity:0.74;fill:url(#SVGID_2_);" cx="452.68" cy="763.63" r="150.89"/>
		<linearGradient id="SVGID_3_" gradientUnits="userSpaceOnUse" x1="406.2905" y1="593" x2="993.0139" y2="593">
			<stop  offset="0" style="stop-color:#42127D"/>
			<stop  offset="0.1434" style="stop-color:#47137E"/>
			<stop  offset="0.3058" style="stop-color:#541782"/>
			<stop  offset="0.4775" style="stop-color:#6B1D88"/>
			<stop  offset="0.6557" style="stop-color:#8B2691"/>
			<stop  offset="0.8369" style="stop-color:#B3309C"/>
			<stop  offset="1" style="stop-color:#DE3CA8"/>
		</linearGradient>
		<circle style="display:none;fill:url(#SVGID_3_);" cx="699.65" cy="593" r="293.36"/>
		<linearGradient id="SVGID_4_" gradientUnits="userSpaceOnUse" x1="62.0079" y1="406.0651" x2="597.1568" y2="406.0651">
			<stop  offset="0" style="stop-color:#42127D"/>
			<stop  offset="0.1705" style="stop-color:#3D1A87"/>
			<stop  offset="0.4573" style="stop-color:#2F30A1"/>
			<stop  offset="0.8232" style="stop-color:#1A53CB"/>
			<stop  offset="0.9385" style="stop-color:#125FDA"/>
		</linearGradient>
		<circle style="display:none;fill:url(#SVGID_4_);" cx="329.58" cy="406.07" r="267.57"/>
		<linearGradient id="SVGID_5_" gradientUnits="userSpaceOnUse" x1="132.7625" y1="749.585" x2="417.6987" y2="749.585">
			<stop  offset="3.723954e-03" style="stop-color:#DA126A"/>
			<stop  offset="0.1048" style="stop-color:#DB1E71"/>
			<stop  offset="0.2872" style="stop-color:#DC3E83"/>
			<stop  offset="0.5301" style="stop-color:#DF71A2"/>
			<stop  offset="0.8209" style="stop-color:#E3B7CB"/>
			<stop  offset="1" style="stop-color:#E6E6E6"/>
		</linearGradient>
		<circle style="display:none;fill:url(#SVGID_5_);" cx="275.23" cy="749.58" r="142.47"/>
		<linearGradient id="SVGID_6_" gradientUnits="userSpaceOnUse" x1="518.8624" y1="518.9162" x2="828.3092" y2="518.9162">
			<stop  offset="0" style="stop-color:#42127D"/>
			<stop  offset="0.5168" style="stop-color:#DE3CA8"/>
			<stop  offset="1" style="stop-color:#FFED85"/>
		</linearGradient>
		<circle style="display:none;opacity:0.8;fill:url(#SVGID_6_);" cx="673.59" cy="518.92" r="154.72"/>
		<linearGradient id="SVGID_7_" gradientUnits="userSpaceOnUse" x1="707.6696" y1="816.9877" x2="872.2407" y2="652.4166">
			<stop  offset="2.237672e-07" style="stop-color:#4D1593"/>
			<stop  offset="0.5158" style="stop-color:#125FDA"/>
			<stop  offset="0.5974" style="stop-color:#1561DA"/>
			<stop  offset="0.6607" style="stop-color:#1F67DB"/>
			<stop  offset="0.7179" style="stop-color:#2F72DD"/>
			<stop  offset="0.7715" style="stop-color:#4782E0"/>
			<stop  offset="0.8227" style="stop-color:#6595E3"/>
			<stop  offset="0.8719" style="stop-color:#8AAEE7"/>
			<stop  offset="0.9196" style="stop-color:#B6CAEC"/>
			<stop  offset="0.965" style="stop-color:#E7EBF1"/>
			<stop  offset="0.9739" style="stop-color:#F2F2F2"/>
		</linearGradient>
		<circle style="display:none;opacity:0.73;fill:url(#SVGID_7_);" cx="789.96" cy="734.7" r="116.37"/>
		
			<linearGradient id="SVGID_8_" gradientUnits="userSpaceOnUse" x1="239.0637" y1="623.9877" x2="415.6297" y2="447.4216" gradientTransform="matrix(0.904 0.4275 -0.4275 0.904 224.3789 -88.5746)">
			<stop  offset="6.766293e-07" style="stop-color:#FFED85"/>
			<stop  offset="0.129" style="stop-color:#FEE984;stop-opacity:0.9073"/>
			<stop  offset="0.2607" style="stop-color:#FCDD83;stop-opacity:0.8127"/>
			<stop  offset="0.3936" style="stop-color:#F9C880;stop-opacity:0.7171"/>
			<stop  offset="0.5275" style="stop-color:#F4AC7D;stop-opacity:0.6209"/>
			<stop  offset="0.6621" style="stop-color:#EE8778;stop-opacity:0.5241"/>
			<stop  offset="0.7974" style="stop-color:#E65973;stop-opacity:0.4269"/>
			<stop  offset="0.9307" style="stop-color:#DD256C;stop-opacity:0.3311"/>
			<stop  offset="0.9739" style="stop-color:#DA126A;stop-opacity:0.3"/>
		</linearGradient>
		<circle style="display:none;opacity:0.98;fill:url(#SVGID_8_);" cx="291.29" cy="535.65" r="124.85"/>
		<g>
			<path class="st6" d="M476.13,832.75h-16.76c-0.67,0-1.23-0.53-1.26-1.2l-1.39-31.32c-0.4-7.76-0.6-14.68-0.6-20.76
				c0-0.05,0-0.09,0-0.14c0-1.51-2.16-1.75-2.48-0.28L443.87,823c-0.13,0.58-0.64,0.98-1.23,0.98h-16.6c-0.58,0-1.09-0.4-1.22-0.97
				l-10.33-43.58c-0.35-1.47-2.52-1.19-2.48,0.31c0.05,2.11,0.08,4.17,0.08,6.19c0,4.64-0.12,9.48-0.36,14.52l-1.39,31.08
				c-0.03,0.67-0.58,1.2-1.26,1.2h-16.64c-0.73,0-1.31-0.62-1.25-1.35l6.05-80.65c0.05-0.66,0.6-1.16,1.25-1.16h22.66
				c0.59,0,1.1,0.41,1.23,0.99l10.99,49.67c0.29,1.32,2.18,1.31,2.46-0.02l10.25-49.64c0.12-0.58,0.63-1,1.23-1h22.77
				c0.66,0,1.2,0.51,1.25,1.16l6.05,80.65C477.44,832.12,476.86,832.75,476.13,832.75z"/>
			<path class="st6" d="M541.69,756.42c6.08,4.56,9.12,11.32,9.12,20.28c0,9.36-2.98,16.42-8.94,21.18
				c-5.96,4.76-13.94,7.14-23.94,7.14h-7.74c-0.69,0-1.26,0.56-1.26,1.26v25.21c0,0.69-0.56,1.26-1.26,1.26H490.5
				c-0.69,0-1.26-0.56-1.26-1.26v-80.65c0-0.69,0.56-1.26,1.26-1.26h25.62C527.09,749.58,535.61,751.87,541.69,756.42z
				 M526.87,787.57c2.44-2.2,3.66-5.82,3.66-10.86c0-8.72-4.88-13.08-14.64-13.08h-5.7c-0.69,0-1.26,0.56-1.26,1.26v24.73
				c0,0.69,0.56,1.26,1.26,1.26h6.06C520.89,790.87,524.43,789.77,526.87,787.57z"/>
			<path class="st6" d="M580.93,750.84v80.65c0,0.69-0.56,1.26-1.26,1.26H562.5c-0.69,0-1.26-0.56-1.26-1.26v-80.65
				c0-0.69,0.56-1.26,1.26-1.26h17.17C580.36,749.58,580.93,750.15,580.93,750.84z M627.28,751.57l-24.62,34.65
				c-0.29,0.41-0.31,0.96-0.04,1.39l27.03,43.2c0.52,0.84-0.08,1.92-1.07,1.92h-19.82c-0.44,0-0.85-0.23-1.08-0.61l-25.74-43.1
				c-0.25-0.42-0.24-0.95,0.04-1.35l25.57-37.55c0.23-0.34,0.62-0.55,1.04-0.55h17.66C627.27,749.58,627.87,750.74,627.28,751.57z"
				/>
		</g>
		<rect x="275.23" y="435.98" class="st33" width="470.56" height="271.92"/>
		<polygon class="st6" points="462.64,551.61 329.6,483.03 330.16,503.25 442.83,559.45 442.83,559.7 329.98,615.76 329.6,636.15 
			462.64,567.56 462.54,567.31 462.64,567.31 		"/>
		<rect x="452.68" y="641.38" class="st6" width="115.66" height="19.15"/>
		<path class="st34" d="M275.23,401.77v34.21h470.56v-34.21H275.23z M639.03,431.68c-7.07,0-12.81-5.74-12.81-12.81
			c0-7.07,5.74-12.81,12.81-12.81c7.07,0,12.81,5.74,12.81,12.81C651.84,425.95,646.1,431.68,639.03,431.68z M673.59,431.68
			c-7.07,0-12.81-5.74-12.81-12.81c0-7.07,5.74-12.81,12.81-12.81s12.81,5.74,12.81,12.81C686.4,425.95,680.66,431.68,673.59,431.68
			z M712.46,431.68c-7.07,0-12.81-5.74-12.81-12.81c0-7.07,5.74-12.81,12.81-12.81s12.81,5.74,12.81,12.81
			C725.27,425.95,719.54,431.68,712.46,431.68z"/>
	</g>
</g>
</svg>
