<svg xmlns="http://www.w3.org/2000/svg" viewBox="0 0 483.56 437.98"><defs><style>.cls-1,.cls-3{fill:#fff;}.cls-1,.cls-2,.cls-3,.cls-4{stroke:#fff;stroke-miterlimit:10;}.cls-2,.cls-4{fill:none;}.cls-2,.cls-3{stroke-width:13px;}.cls-4{stroke-width:14px;}</style></defs><title>Recurso 1</title><g id="Capa_2" data-name="Capa 2"><g id="DESIGNED_BY_FREEPIK" data-name="DESIGNED BY FREEPIK"><path class="cls-1" d="M207.4,437.48H190.64a1.26,1.26,0,0,1-1.26-1.21L188,405q-.6-11.64-.6-20.77v-.13a1.26,1.26,0,0,0-2.49-.28l-9.77,44a1.26,1.26,0,0,1-1.23,1h-16.6a1.25,1.25,0,0,1-1.22-1l-10.33-43.58a1.26,1.26,0,0,0-2.48.31c.05,2.11.08,4.17.08,6.2q0,7-.36,14.51l-1.39,31.08a1.26,1.26,0,0,1-1.26,1.21H123.71a1.26,1.26,0,0,1-1.25-1.36l6-80.64a1.25,1.25,0,0,1,1.25-1.16h22.67a1.25,1.25,0,0,1,1.23,1l11,49.68a1.25,1.25,0,0,0,2.45,0l10.25-49.64a1.24,1.24,0,0,1,1.23-1h22.77a1.24,1.24,0,0,1,1.25,1.16l6.06,80.64A1.27,1.27,0,0,1,207.4,437.48Z"/><path class="cls-1" d="M273,361.15q9.1,6.86,9.12,20.29,0,14-8.94,21.17t-23.94,7.15h-7.75A1.25,1.25,0,0,0,240.2,411v25.21a1.27,1.27,0,0,1-1.26,1.26H221.77a1.26,1.26,0,0,1-1.25-1.26V355.57a1.25,1.25,0,0,1,1.25-1.25H247.4Q263.84,354.32,273,361.15ZM258.14,392.3q3.66-3.3,3.66-10.86,0-13.08-14.64-13.08h-5.71a1.25,1.25,0,0,0-1.25,1.25v24.73a1.26,1.26,0,0,0,1.25,1.26h6.07Q254.47,395.6,258.14,392.3Z"/><path class="cls-1" d="M312.2,355.57v80.65a1.27,1.27,0,0,1-1.26,1.26H293.77a1.26,1.26,0,0,1-1.25-1.26V355.57a1.25,1.25,0,0,1,1.25-1.25h17.17A1.26,1.26,0,0,1,312.2,355.57Zm46.34.73L333.92,391a1.27,1.27,0,0,0,0,1.4l27,43.2a1.26,1.26,0,0,1-1.06,1.93H340a1.27,1.27,0,0,1-1.08-.62l-25.74-43.1a1.25,1.25,0,0,1,0-1.35l25.57-37.55a1.26,1.26,0,0,1,1-.54h17.66A1.25,1.25,0,0,1,358.54,356.3Z"/><rect class="cls-2" x="6.5" y="40.71" width="470.56" height="271.92"/><polygon class="cls-1" points="193.91 156.34 60.87 87.76 61.42 107.98 174.1 164.18 174.1 164.43 61.25 220.49 60.87 240.88 193.91 172.29 193.81 172.04 193.91 172.04 193.91 156.34"/><rect class="cls-1" x="183.95" y="246.11" width="115.66" height="19.15"/><path class="cls-3" d="M6.5,6.5V40.71H477.06V6.5ZM370.3,36.41A12.81,12.81,0,1,1,383.11,23.6,12.8,12.8,0,0,1,370.3,36.41Zm34.56,0A12.81,12.81,0,1,1,417.67,23.6,12.8,12.8,0,0,1,404.86,36.41Zm38.87,0A12.81,12.81,0,1,1,456.54,23.6,12.81,12.81,0,0,1,443.73,36.41Z"/><ellipse class="cls-4" cx="370.3" cy="164.32" rx="52.12" ry="43.2"/></g></g></svg>